Coordinates
version=1
nRows=33
nColumns=33
inDegrees=yes

Units are S.I. units (second, meters, Newtons, ...)
Angles are in degrees.

endheader
time	ground_thorax_rot_x	ground_thorax_rot_y	ground_thorax_rot_z	ground_thorax_tx	ground_thorax_ty	ground_thorax_tz	clav_prot_r	clav_elev_r	scapula_abduction_r	scapula_elevation_r	scapula_upward_rot_r	scapula_winging_r	shoulder_elv_r	plane_of_elev_r	axial_rot_r	elbow_flexion_r	pro_sup_r	wrist_flex_r	wrist_dev_r	clav_prot_l	clav_elev_l	scapula_abduction_l	scapula_elevation_l	scapula_upward_rot_l	scapula_winging_l	shoulder_elv_l	plane_of_elev_l	axial_rot_l	elbow_flexion_l	pro_sup_l	wrist_flex_l	wrist_dev_l	
1.5100	2.591807	-0.493412	-8.414606	-0.081466	1.046581	0.007874	-12.740313	-9.772729	-13.814538	-2.315971	2.857440	1.970860	54.657795	-47.728890	61.257076	54.198287	7.401337	18.237230	4.385448	-6.564081	-6.736592	6.376495	-3.737309	-8.624641	-2.562063	54.171318	-50.395781	-42.903951	51.722879	11.393244	-1.963822	-25.000000	
1.5200	2.577683	-0.501659	-8.415668	-0.081456	1.046501	0.007842	-12.753731	-9.669742	-13.798952	-2.265303	2.980310	1.905208	54.616404	-47.753861	61.263116	54.383001	7.480476	18.384135	4.374714	-6.528051	-6.697700	6.285905	-3.732646	-8.515482	-2.517331	54.112719	-50.510983	-42.847609	51.877983	11.454370	-2.053560	-25.000000	
1.5300	2.574311	-0.503603	-8.417943	-0.081439	1.046507	0.007804	-12.773845	-9.570434	-13.780468	-2.228750	3.133567	1.835902	54.555300	-47.787305	61.264021	54.532613	7.605306	18.523377	4.398975	-6.476774	-6.674871	6.158277	-3.705170	-8.383977	-2.465594	54.026444	-50.648576	-42.797896	52.022603	11.567872	-2.164848	-25.000000	
1.5400	2.568427	-0.505975	-8.422532	-0.081453	1.046457	0.007774	-12.801675	-9.437396	-13.754044	-2.182051	3.345524	1.741545	54.473603	-47.832544	61.266133	54.741719	7.780930	18.699963	4.445968	-6.406245	-6.640315	5.982973	-3.670219	-8.202776	-2.392625	53.915444	-50.834796	-42.739086	52.229551	11.733378	-2.312798	-25.000000	
1.5500	2.559943	-0.506729	-8.430441	-0.081493	1.046390	0.007739	-12.834511	-9.283901	-13.719253	-2.132262	3.601973	1.630213	54.385371	-47.886779	61.273995	55.002005	8.000447	18.876554	4.535326	-6.322837	-6.592763	5.775102	-3.633324	-7.983949	-2.303093	53.802222	-51.050123	-42.691991	52.500030	11.953140	-2.477180	-25.000000	
1.5600	2.540171	-0.509384	-8.440155	-0.081549	1.046314	0.007693	-12.864806	-9.122833	-13.676975	-2.078582	3.867597	1.513593	54.322777	-47.940712	61.298685	55.331994	8.226777	19.010140	4.672309	-6.244015	-6.518075	5.576791	-3.617717	-7.755974	-2.206534	53.736540	-51.258522	-42.681513	52.845323	12.197787	-2.617188	-25.000000	
1.5700	2.511896	-0.512008	-8.449693	-0.081621	1.046235	0.007637	-12.895766	-8.954348	-13.627318	-2.025213	4.153894	1.389720	54.299583	-48.003029	61.351801	55.754900	8.483218	19.067181	4.900610	-6.173749	-6.420466	5.392435	-3.617091	-7.512713	-2.104272	53.736051	-51.469893	-42.729988	53.283497	12.503949	-2.722176	-25.000000	
1.5800	2.471128	-0.521419	-8.459914	-0.081690	1.046175	0.007572	-12.921576	-8.791448	-13.572506	-1.972736	4.429001	1.269872	54.344139	-48.060445	61.442886	56.276543	8.734486	19.026449	5.208041	-6.128023	-6.296335	5.259503	-3.644692	-7.281686	-2.007648	53.835359	-51.656478	-42.847840	53.808721	12.832211	-2.760645	-25.000000	
1.5900	2.423431	-0.537502	-8.473565	-0.081764	1.046119	0.007499	-12.941812	-8.623729	-13.507836	-1.915953	4.705349	1.147126	54.458697	-48.111671	61.581268	56.908558	8.988972	18.913043	5.586836	-6.103577	-6.149964	5.168316	-3.692702	-7.052358	-1.914348	54.024142	-51.832957	-43.026917	54.433627	13.178277	-2.741999	-24.999999	
1.6000	2.375889	-0.565562	-8.484384	-0.081829	1.046089	0.007423	-12.957298	-8.449485	-13.433859	-1.854069	4.985076	1.020522	54.662448	-48.153344	61.790006	57.652440	9.252215	18.736825	6.031511	-6.104301	-5.994697	5.123858	-3.749334	-6.826169	-1.829397	54.303708	-52.016716	-43.268673	55.152254	13.525887	-2.656069	-24.999999	
1.6100	2.335474	-0.603119	-8.496649	-0.081897	1.046081	0.007354	-12.972760	-8.256865	-13.346963	-1.786856	5.298169	0.879583	54.935442	-48.187395	62.067342	58.503106	9.552700	18.539431	6.537126	-6.114684	-5.840660	5.088984	-3.796137	-6.577696	-1.743689	54.638622	-52.236811	-43.555540	55.962998	13.886751	-2.532451	-24.999998	
1.6200	2.299559	-0.653689	-8.510385	-0.081968	1.046084	0.007290	-12.984703	-8.043320	-13.247398	-1.707529	5.631956	0.725715	55.276988	-48.201644	62.409843	59.450331	9.861466	18.356937	7.060342	-6.132587	-5.679048	5.063796	-3.844134	-6.314602	-1.656050	55.020907	-52.482808	-43.870810	56.859750	14.206427	-2.373569	-24.999997	
1.6300	2.269748	-0.713269	-8.521642	-0.082041	1.046101	0.007228	-12.995295	-7.813127	-13.139521	-1.618884	5.983147	0.561595	55.700179	-48.195292	62.830056	60.493920	10.178809	18.188244	7.612170	-6.157750	-5.512606	5.047364	-3.891134	-6.037578	-1.566915	55.458053	-52.754527	-44.226072	57.841543	14.459659	-2.164923	-24.999994	
1.6400	2.244745	-0.780371	-8.518833	-0.082113	1.046131	0.007167	-13.005664	-7.565480	-13.026475	-1.519546	6.349637	0.387807	56.206659	-48.172332	63.328494	61.628911	10.506470	18.028781	8.201044	-6.188095	-5.337918	5.037301	-3.941144	-5.748865	-1.475397	55.953594	-53.056229	-44.629852	58.905171	14.637063	-1.904826	-24.999989	
1.6500	2.220820	-0.850702	-8.517554	-0.082182	1.046181	0.007114	-13.017318	-7.308895	-12.909857	-1.416851	6.730194	0.208188	56.768421	-48.127701	63.869038	62.838428	10.831433	17.884649	8.816587	-6.217401	-5.153914	5.022432	-3.995070	-5.447792	-1.378662	56.493642	-53.366331	-45.066388	60.029201	14.730430	-1.612216	-24.999981	
1.6600	2.202829	-0.922025	-8.518888	-0.082238	1.046245	0.007066	-13.033317	-7.046585	-12.793268	-1.314274	7.126354	0.023873	57.388480	-48.062603	64.445548	64.115511	11.145930	17.755362	9.465712	-6.245568	-4.967628	5.001692	-4.047389	-5.136620	-1.278405	57.076318	-53.682814	-45.538397	61.207954	14.694378	-1.287901	-24.999966	
1.6700	2.190774	-0.993026	-8.533604	-0.082271	1.046326	0.007021	-13.054599	-6.784332	-12.677818	-1.216527	7.536602	-0.162615	58.050466	-47.972644	65.036146	65.446162	11.437191	17.639984	10.133834	-6.274122	-4.783541	4.977042	-4.094107	-4.815708	-1.176187	57.689883	-53.993514	-46.027129	62.428318	14.522042	-0.944141	-24.999939	
1.6800	2.189312	-1.065103	-8.548528	-0.082270	1.046430	0.006984	-13.084391	-6.525659	-12.567530	-1.127385	7.962429	-0.349983	58.774314	-47.862647	65.657210	66.839498	11.713438	17.501542	10.855508	-6.308248	-4.616071	4.956570	-4.123811	-4.489988	-1.078087	58.350823	-54.314676	-46.557145	63.686262	14.176708	-0.567902	-24.999891	
1.6900	2.187177	-1.139662	-8.582834	-0.082245	1.046538	0.006953	-13.113505	-6.269195	-12.452821	-1.041184	8.391780	-0.537123	59.500509	-47.716980	66.248500	68.258611	11.930462	17.373329	11.555731	-6.340339	-4.445222	4.931667	-4.155944	-4.162239	-0.977892	59.017390	-54.609057	-47.068981	64.960173	13.676017	-0.205646	-24.999805	
1.7000	2.191814	-1.217174	-8.614014	-0.082194	1.046659	0.006929	-13.143737	-6.015160	-12.336154	-0.958398	8.825475	-0.723999	60.262955	-47.542795	66.844681	69.718182	12.085091	17.218294	12.281583	-6.374634	-4.285434	4.908625	-4.179184	-3.837507	-0.881223	59.706291	-54.897516	-47.595686	66.246664	12.961258	0.170071	-24.999650	
1.7100	2.192233	-1.298043	-8.647449	-0.082127	1.046772	0.006904	-13.166149	-5.757368	-12.207518	-0.870520	9.255627	-0.912013	61.007045	-47.336384	67.396319	71.181850	12.152312	17.060688	12.976198	-6.405322	-4.113622	4.881229	-4.213858	-3.513803	-0.781247	60.375750	-55.155412	-48.080413	67.535716	12.117318	0.522227	-24.999374	
1.7200	2.189833	-1.382794	-8.658043	-0.082056	1.046886	0.006887	-13.177753	-5.491596	-12.064245	-0.772640	9.679177	-1.102113	61.747700	-47.104518	67.925591	72.655952	12.131728	16.881662	13.672184	-6.430855	-3.934963	4.847267	-4.257068	-3.195825	-0.679380	61.031871	-55.398254	-48.541233	68.816108	11.127449	0.868798	-24.998878	
1.7300	2.181416	-1.468334	-8.672241	-0.081986	1.046985	0.006874	-13.173165	-5.221031	-11.899034	-0.665550	10.090685	-1.292874	62.434799	-46.843263	68.363683	74.108289	11.982203	16.701967	14.327409	-6.444948	-3.742261	4.795803	-4.314580	-2.880969	-0.570870	61.626430	-55.591756	-48.913214	70.074936	10.024606	1.177325	-24.997991	
1.7400	2.177908	-1.548370	-8.683621	-0.081900	1.047098	0.006872	-13.164616	-4.959260	-11.727007	-0.564057	10.496524	-1.479365	63.107920	-46.568342	68.738154	75.558672	11.736150	16.490135	14.997902	-6.458095	-3.568457	4.738394	-4.355711	-2.567913	-0.465695	62.184021	-55.751313	-49.229390	71.307429	8.803924	1.486760	-24.996400	
1.7500	2.177824	-1.619175	-8.715462	-0.081788	1.047219	0.006867	-13.152816	-4.721251	-11.555892	-0.475441	10.878044	-1.652393	63.748326	-46.274076	68.993285	76.983408	11.358186	16.248080	15.659605	-6.470687	-3.416282	4.677880	-4.380815	-2.264217	-0.366161	62.685075	-55.847074	-49.451634	72.511833	7.434677	1.791246	-24.993557	
1.7600	2.178524	-1.676929	-8.753748	-0.081646	1.047352	0.006866	-13.142503	-4.509313	-11.395333	-0.400999	11.232159	-1.809434	64.361701	-45.968129	69.144456	78.378688	10.887871	15.988108	16.305554	-6.486417	-3.288812	4.621451	-4.387987	-1.972494	-0.275193	63.140561	-55.879781	-49.593058	73.681148	5.967146	2.097091	-24.988442	
1.7700	2.180412	-1.720538	-8.805066	-0.081474	1.047494	0.006855	-13.134535	-4.327970	-11.246792	-0.344124	11.556893	-1.948802	64.935954	-45.651002	69.175888	79.725535	10.330795	15.722380	16.915413	-6.505545	-3.186581	4.570091	-4.377486	-1.694698	-0.193368	63.534774	-55.835619	-49.636620	74.813380	4.432336	2.392607	-24.979345	
1.7800	2.180418	-1.751780	-8.852235	-0.081290	1.047635	0.006833	-13.120916	-4.168305	-11.103067	-0.294106	11.844398	-2.072390	65.465656	-45.324908	69.095272	81.014088	9.684202	15.451882	17.495602	-6.521388	-3.098870	4.518021	-4.362530	-1.439940	-0.118841	63.852235	-55.711236	-49.571019	75.891795	2.838688	2.678382	-24.962863	
1.7900	2.181772	-1.773166	-8.891558	-0.081097	1.047772	0.006793	-13.101855	-4.030647	-10.962374	-0.252442	12.098381	-2.181436	65.951069	-44.991105	68.912638	82.234020	8.957225	15.179123	18.041661	-6.533960	-3.030454	4.464546	-4.339255	-1.209476	-0.052640	64.085865	-55.507445	-49.401719	76.908621	1.201385	2.949932	-24.933861	
1.8000	2.185871	-1.791092	-8.915447	-0.080910	1.047895	0.006741	-13.069429	-3.901769	-10.812814	-0.207969	12.321500	-2.281813	66.378925	-44.644319	68.638428	83.371707	8.141197	14.913108	18.545046	-6.539516	-2.973995	4.406495	-4.315987	-1.007613	0.006705	64.202411	-55.218462	-49.101153	77.838378	-0.460541	3.190993	-24.880456	
1.8100	2.196873	-1.800029	-8.932901	-0.080715	1.048013	0.006679	-13.034376	-3.792033	-10.660648	-0.176040	12.531684	-2.373662	66.750432	-44.295498	68.295475	84.423741	7.286745	14.667642	18.980427	-6.544117	-2.950640	4.343949	-4.267966	-0.819427	0.057168	64.220527	-54.849570	-48.708537	78.674442	-2.076054	3.392125	-24.788851	
1.8200	2.212066	-1.799429	-8.955506	-0.080533	1.048119	0.006605	-12.987244	-3.706557	-10.501148	-0.153581	12.706001	-2.450933	67.058116	-43.937408	67.860817	85.378825	6.322177	14.410801	19.353214	-6.539436	-2.955573	4.267904	-4.203858	-0.656284	0.099424	64.121860	-54.379752	-48.203345	79.398881	-3.764273	3.565688	-24.613431	
1.8300	2.227576	-1.774264	-8.987637	-0.080347	1.048223	0.006519	-12.941992	-3.658086	-10.349715	-0.155772	12.854975	-2.510507	67.293056	-43.588511	67.350355	86.223511	5.310775	14.176838	19.609379	-6.529809	-3.000491	4.175774	-4.106093	-0.499168	0.134796	63.948519	-53.810635	-47.649534	80.018157	-5.421457	3.699685	-24.330823	
